<svg xmlns="http://www.w3.org/2000/svg" viewBox="0 0 727.76 755.87"><defs><style>.cls-1{fill:#00ab56;}.cls-2{fill:#05b3e8;}.cls-3,.cls-7{fill:#ceeefd;}.cls-3,.cls-4,.cls-6{stroke:#fff;stroke-linejoin:round;}.cls-3,.cls-6{stroke-width:15px;}.cls-4,.cls-6{fill:none;}.cls-4{stroke-width:16px;}.cls-5{fill:#fff;}</style></defs><g id="Capa_9" data-name="Capa 9"><path class="cls-1" d="M454.74,332.84,379.19,173.53c-126.63,31.13-220,138.65-220,266.5,0,133.32,101.53,244.51,236.42,270.06-92.88-34.25-154.91-146-154.91-254.27,0-67.21,25.31-118.47,67-152.31L460.07,541.94,612.46,303.51c41.69,33.83,67,85.1,67,152.31,0,107.94-69,219.25-163.81,253.91,134-26.18,234.65-137,234.65-269.7,0-127.77-93.26-235.24-219.77-266.44Z" transform="translate(-90.4 -93.89)"/><path class="cls-2" d="M390,845.53c-1.56-1.67-2.57-2.3-2.91-3.18Q375,810.93,363,779.46c-1.59-4.16-2.86-8.57-8-11.48-5.89,6.25-7.88,13.74-7.93,21.75-.13,21.93,7.18,40.65,24.6,54.72,1.08.87,2.57,1.23,3.26,2.85-8.84,2.21-16.72,0-24.23-2.55-16.56-5.67-28.12-16.59-33.14-33.89a42.75,42.75,0,0,1,21.45-49.78c8.57-4.36,17.58-6.09,27.12-6.28,5.69-.12,8.93,2,11,7.27,4.55,11.64,9.42,23.16,14.23,34.7.72,1.72,1.83,3.27,3.51,6.22,1.81-2.74,3.26-4.32,4-6.18q6.79-17,13.31-34.15c3.14-8.23,4.26-9.2,13-9.37,5.11-.1,10.22,0,15.33.12.7,0,1.39.77,1,.55-.34,8.28-1,15.8-.88,23.3.22,13.94.93,27.86,1.35,41.8.28,9.38-.28,19,9,26.93l-38.19,1.21c6.85-12.26,3.63-24.21,3.77-35.92.09-7.11-.12-14.22-.33-21.32-.05-1.52-.65-3-1.43-6.41-6.22,6.86-6.16,14.62-9.07,21s-5.16,13.23-7.7,19.86S392.91,837.89,390,845.53Z" transform="translate(-90.4 -93.89)"/><path class="cls-2" d="M316.5,757c-.21.76-.17,1.81-.67,2.26-7.36,6.57-8.28,15.09-7.74,24.22,1.08,18.17,2,36.36,2.91,54.54.14,2.89-.22,5.81-.35,8.71l-1.72.25c-5.69-7-11.31-14-17.1-20.89q-23.06-27.4-46.25-54.7c-4.21-5-7.55-4.43-10,1.51a27,27,0,0,0-1.62,6.6c-3.33,24.88,3.9,46,22.33,63.25,1.17,1.1,2.2,2.34,4.13,4.41-2.92.4-4.75,1-6.54.86-23-1.19-43.27-16.52-48.83-36.32-6.49-23.14,5.43-46,29.68-53.57,1.62-.51,3.31-.81,5-1.25,9.9-2.68,18.07-1.07,24.89,7.64,8.24,10.51,17.42,20.27,26.24,30.32,1.6,1.83,3.41,3.48,6.13,6.22,4-8.46,2.18-16.08,2.29-23.46.12-8.1-2.6-14.95-10.17-19.72C296.92,754.85,309.63,754.62,316.5,757Z" transform="translate(-90.4 -93.89)"/><path class="cls-2" d="M702.54,848.78c9.36-11.2,19-19.79,18.71-33.52-.85-.72-1.46-1.7-2.12-1.74-10.46-.52-21-1.45-31.4-1.18-7,.18-7.85,2.24-8.23,9.19-.48,8.84,1.55,16.3,9.46,21.4,1.68,1.09,2.84,3,5.46,5.86l-34.58-.94c12.79-9.39,11.19-21,10.43-32.81-1.24-19.3-1.89-38.63-2.51-58-.23-7.07.89-8.54,7.61-8.3,29.15,1,54.83,9.46,71.36,35.8,11.81,18.82,9.69,40.47-5.65,56.42-2.47,2.58-5.74,5.07-9.09,6C723,849.49,713.7,847.92,702.54,848.78Zm-24.4-69.4c.18,5.68.25,11.36.57,17,.44,7.82,1.84,9.31,9.86,9.43,8.51.13,17-.06,25.53-.42,6.48-.28,7.7-2.2,6.78-8.71-1.34-9.41-6.52-17-12.16-24.05-6.27-7.87-14.08-14.06-24.21-16.45-5.24-1.24-6.83-.09-6.89,5.29C677.55,767.46,677.94,773.42,678.14,779.38Z" transform="translate(-90.4 -93.89)"/><path class="cls-2" d="M541,780.86c1.48,11.73,2.18,21.15,1.16,31.71-4.36-3.21-7.4-6.14-11-7.92a29.94,29.94,0,0,0-11.39-3.19c-10.19-.47-20.42-.54-30.62-.19-5.2.18-7.2,2.45-6.25,7,2.59,12.38,6.38,24.34,17.63,32a18.82,18.82,0,0,0,7.69,3.38c15.73,1.94,30-1.13,41-13.55,2.37-2.66,4.6-5.44,6.9-8.17l1.75.62c.23,7.21.67,14.43.59,21.65,0,3-2.66,4.23-5.46,4.25-21.22.12-42.58,3.41-63.47-3.3-19-6.09-30.91-18.77-35.08-38.18-5-23.4,10.22-46.9,34.21-52.06,10.18-2.19,20.83-2.44,31.3-2.9,8.5-.38,17,.18,25.55.47,8,.27,8.36.68,8.77,9,.23,4.7.31,9.41.46,14.12L553,776c-3.82-4-7.48-8.25-11.48-12.1-17.72-17-43.82-11.65-53.19,10.87a77.82,77.82,0,0,0-4.35,12c-1.28,5.43.35,7.92,5.67,8,11.35.07,22.72-.28,34-.91C531,793.41,535.54,788,541,780.86Z" transform="translate(-90.4 -93.89)"/><path class="cls-2" d="M651.07,786.32c-4.08-6.1-7.67-12.63-12.4-18.19a49.68,49.68,0,0,0-13.1-10.56c-6-3.45-11.87-2.12-17.05,2.91-7.87,7.63-12.43,17-14.54,27.46-3.36,16.66-.9,32.29,9.9,45.93,8.09,10.23,19.27,12.86,30.35,7.38,6.26-3.1,9.06-9.21,12.34-14.8,2-3.36,3.42-7,5.11-10.56l1.89.15c.38,6,.79,12,1.13,17.92,1,18.19-.91,16.09-14.55,15.3-9.33-.55-18.72-.45-28-1.46-12.19-1.34-22.58-7-32-14.79-26.39-21.68-21.41-61.93,9.74-75.91a55.1,55.1,0,0,1,18.1-4.36c12.17-.91,24.41-.79,36.62-1.13,3.91-.11,6.91,1.12,7.11,5.47.45,9.8.67,19.6,1,29.4Z" transform="translate(-90.4 -93.89)"/><path class="cls-2" d="M211.34,845.88c-17.88-1.47-32.72-6.66-43.11-21.34-12.82-18.11-11-47.15,14.18-63,5.29-3.32,10.51-6.33,14.23-11.8,1.54-2.26,5.72-3.62,8.78-3.76,5.37-.25,10.05,4.33,10.77,9.18a9.53,9.53,0,0,1-7.89,10.63c-13,1.85-15.73,11.82-18.14,21.76-4.5,18.57,2.6,34,14.32,47.84,2,2.39,4.26,4.58,6.32,6.92C211.1,842.65,211,843.36,211.34,845.88Z" transform="translate(-90.4 -93.89)"/><circle class="cls-3" cx="370.53" cy="137.48" r="32.22"/><path class="cls-4" d="M451.73,428.25c-4.76-3.39-36.32-27-34.07-55.33,2.53-32,73.81-51.15,97.23-57.46l3.36-.91c17.65-4.85,45.06-21.07,47.84-40.45,1.18-8.21,1-10.45,1-10.54a.39.39,0,0,0-.15-.27.4.4,0,0,0-.23-.08h-.08a63.42,63.42,0,0,1-13.81,1.4c-21.74,0-49.88-9.14-60.33-29.2-1.49-2.87-1.6-5.4-.31-7.51,3.7-6.1,19-9.32,44.15-9.32,6.93,0,14.39.24,22.17.72a48.57,48.57,0,0,1,29.22,11.63c8.24,7.28,17.49,20.44,14.72,41.71-4.89,37.56-36.53,64.4-89.11,75.59-56.76,12.07-67.47,36.31-69.44,46.17-2.3,11.48,2.22,24.56,7.75,29.26Z" transform="translate(-90.4 -93.89)"/><path class="cls-4" d="M536.35,219c6.93,0,14.38.24,22.15.71a48.24,48.24,0,0,1,29,11.54c11.89,10.51,16.8,24.43,14.6,41.38-2.55,19.58-12.18,36.14-28.61,49.23-15.05,12-35.3,20.74-60.2,26-57,12.12-67.75,36.53-69.74,46.47-2.31,11.52,2.2,24.64,7.75,29.51l0,3.66C445,422.91,415.88,400.11,418,373c1.07-13.44,14.79-26.25,40.8-38.08,21.17-9.63,44.8-16,56.16-19l3.36-.91c17.75-4.89,45.31-21.22,48.11-40.77,1.19-8.25,1-10.53,1-10.62a.75.75,0,0,0-.75-.69l-.16,0a63.24,63.24,0,0,1-13.73,1.39c-21.63,0-49.62-9.08-60-29-1.44-2.78-1.55-5.11-.32-7.14,3.62-6,18.78-9.13,43.83-9.13m0-.75c-24.17,0-51.66,3-44.17,17.37C502.64,255.68,530.61,265,552.84,265a64.35,64.35,0,0,0,13.89-1.41s.18,2.19-1,10.46c-2.92,20.32-32,35.85-47.57,40.14-17.5,4.82-98.17,24.63-100.86,58.7C414.82,404,452.12,429,452.12,429l-.09-5.49c-5.73-4.72-9.95-18-7.76-29,3.26-16.26,21.59-35.76,69.16-45.88s84-34.41,89.4-75.9c2.7-20.75-5.73-34-14.84-42a48.84,48.84,0,0,0-29.45-11.72c-6-.36-13.88-.71-22.19-.71Z" transform="translate(-90.4 -93.89)"/><path class="cls-4" d="M446.73,509c-7.78-.78-38.14-6.1-39.54-41.67-.7-17.75,25.68-27.53,43.13-34,4.07-1.51,7.58-2.81,10.3-4,11.4-5.11,21.08-13.05,14.52-53.3,5,3.22,34.28,23.37,31.85,47.1-2.64,25.74-45.83,35.34-46.26,35.43a.3.3,0,0,0-.16.08c-.16.12-15.53,12.86-14.52,28.06a136,136,0,0,1,.12,14.39C446,505.15,446,507.75,446.73,509Z" transform="translate(-90.4 -93.89)"/><path class="cls-4" d="M475.65,376.8c6.5,4.35,33.28,23.72,31,46.28-2.61,25.47-45.53,35-46,35.1a.74.74,0,0,0-.32.16c-.64.52-15.68,13-14.66,28.37a135.43,135.43,0,0,1,.12,14.36c-.11,3.46-.19,6,.33,7.5a50.75,50.75,0,0,1-19.44-6.4c-12.05-7.16-18.48-18.88-19.11-34.85-.69-17.48,25.53-27.19,42.88-33.62,4.07-1.51,7.59-2.81,10.32-4,11.46-5.14,21.21-13.08,14.88-52.86m-1-1.55c6.74,40.49-2.7,48.58-14.17,53.73-14.7,6.59-54.52,16.27-53.65,38.37,1.52,38.63,36.64,41.89,41.32,42.15-3.14-.44-.73-8.1-1.72-22.84-1-15.18,14.38-27.74,14.38-27.74s43.86-9.45,46.56-35.76-32.72-47.91-32.72-47.91ZM448.14,509.5l.3,0h.19l-.49,0Zm.49,0h0Z" transform="translate(-90.4 -93.89)"/><path class="cls-4" d="M446.91,619.68c-7.52-.71-38.31-5.84-39.72-41.69-.7-17.75,25.68-27.52,43.13-34,4.07-1.51,7.58-2.81,10.3-4,11.4-5.11,21.08-13.05,14.52-53.3,5,3.23,34.28,23.38,31.85,47.1-2.64,25.74-45.83,35.34-46.26,35.43a.31.31,0,0,0-.17.09c-.14.12-13.68,12.21-12.67,27.4a79.84,79.84,0,0,1-.81,16.87C446.68,616.55,446.4,618.61,446.91,619.68Z" transform="translate(-90.4 -93.89)"/><path class="cls-4" d="M475.65,487.46c6.5,4.34,33.28,23.71,31,46.27-2.61,25.47-45.53,35-46,35.11a.65.65,0,0,0-.34.17c-.57.49-13.82,12.33-12.8,27.71a79.27,79.27,0,0,1-.8,16.79,20.05,20.05,0,0,0-.33,5.74,50.56,50.56,0,0,1-19.65-6.4C414.64,605.7,408.2,594,407.57,578c-.69-17.47,25.53-27.19,42.88-33.62,4.07-1.51,7.59-2.81,10.32-4,11.46-5.14,21.21-13.08,14.88-52.85m-1-1.55c6.74,40.48-2.7,48.57-14.17,53.72-14.7,6.59-54.52,16.28-53.65,38.37,1.52,38.71,36.77,41.9,41.34,42.15-3.07-.44,1.09-8.72.1-23.48-1-15.18,12.54-27.1,12.54-27.1s43.86-9.45,46.56-35.76-32.72-47.9-32.72-47.9ZM448.16,620.15a1.27,1.27,0,0,0,.28,0h.19l-.47,0Zm.47,0h0Z" transform="translate(-90.4 -93.89)"/><path class="cls-4" d="M435.67,686.3c-9.89,0-16.89-1.84-18.1-2.63,41.64-25.51,57.44-40.24,56.78-92.3,4.32,4.21,28.7,29.28,21.63,52C484.33,680.72,453.19,686.3,435.67,686.3Z" transform="translate(-90.4 -93.89)"/><path class="cls-4" d="M474.73,592.28c5.63,5.64,27.6,29.41,20.89,51-4.93,15.82-13.94,27.48-26.8,34.66-11.89,6.64-24.59,8-33.15,8-8.95,0-15.26-1.48-17.31-2.29,41.08-25.22,56.84-40.08,56.37-91.35m-.77-1.8c.84,52-14,66.8-56.79,93-1.13.69,6.95,3.19,18.5,3.19,19.7,0,49.47-7.27,60.67-43.22,7.87-25.25-22.38-53-22.38-53Z" transform="translate(-90.4 -93.89)"/><path class="cls-2" d="M451.73,428.25c-4.76-3.39-36.32-27-34.07-55.33,2.53-32,73.81-51.15,97.23-57.46l3.36-.91c17.65-4.85,45.06-21.07,47.84-40.45,1.18-8.21,1-10.45,1-10.54a.39.39,0,0,0-.15-.27.4.4,0,0,0-.23-.08h-.08a63.42,63.42,0,0,1-13.81,1.4c-21.74,0-49.88-9.14-60.33-29.2-1.49-2.87-1.6-5.4-.31-7.51,3.7-6.1,19-9.32,44.15-9.32,6.93,0,14.39.24,22.17.72a48.57,48.57,0,0,1,29.22,11.63c8.24,7.28,17.49,20.44,14.72,41.71-4.89,37.56-36.53,64.4-89.11,75.59-56.76,12.07-67.47,36.31-69.44,46.17-2.3,11.48,2.22,24.56,7.75,29.26Z" transform="translate(-90.4 -93.89)"/><path class="cls-5" d="M536.35,219c6.93,0,14.38.24,22.15.71a48.24,48.24,0,0,1,29,11.54c11.89,10.51,16.8,24.43,14.6,41.38-2.55,19.58-12.18,36.14-28.61,49.23-15.05,12-35.3,20.74-60.2,26-57,12.12-67.75,36.53-69.74,46.47-2.31,11.52,2.2,24.64,7.75,29.51l0,3.66C445,422.91,415.88,400.11,418,373c1.07-13.44,14.79-26.25,40.8-38.08,21.17-9.63,44.8-16,56.16-19l3.36-.91c17.75-4.89,45.31-21.22,48.11-40.77,1.19-8.25,1-10.53,1-10.62a.75.75,0,0,0-.75-.69l-.16,0a63.24,63.24,0,0,1-13.73,1.39c-21.63,0-49.62-9.08-60-29-1.44-2.78-1.55-5.11-.32-7.14,3.62-6,18.78-9.13,43.83-9.13m0-.75c-24.17,0-51.66,3-44.17,17.37C502.64,255.68,530.61,265,552.84,265a64.35,64.35,0,0,0,13.89-1.41s.18,2.19-1,10.46c-2.92,20.32-32,35.85-47.57,40.14-17.5,4.82-98.17,24.63-100.86,58.7C414.82,404,452.12,429,452.12,429l-.09-5.49c-5.73-4.72-9.95-18-7.76-29,3.26-16.26,21.59-35.76,69.16-45.88s84-34.41,89.4-75.9c2.7-20.75-5.73-34-14.84-42a48.84,48.84,0,0,0-29.45-11.72c-6-.36-13.88-.71-22.19-.71Z" transform="translate(-90.4 -93.89)"/><path class="cls-2" d="M446.73,509c-7.78-.78-38.14-6.1-39.54-41.67-.7-17.75,25.68-27.53,43.13-34,4.07-1.51,7.58-2.81,10.3-4,11.4-5.11,21.08-13.05,14.52-53.3,5,3.22,34.28,23.37,31.85,47.1-2.64,25.74-45.83,35.34-46.26,35.43a.3.3,0,0,0-.16.08c-.16.12-15.53,12.86-14.52,28.06a136,136,0,0,1,.12,14.39C446,505.15,446,507.75,446.73,509Z" transform="translate(-90.4 -93.89)"/><path class="cls-5" d="M475.65,376.8c6.5,4.35,33.28,23.72,31,46.28-2.61,25.47-45.53,35-46,35.1a.74.74,0,0,0-.32.16c-.64.52-15.68,13-14.66,28.37a135.43,135.43,0,0,1,.12,14.36c-.11,3.46-.19,6,.33,7.5a50.75,50.75,0,0,1-19.44-6.4c-12.05-7.16-18.48-18.88-19.11-34.85-.69-17.48,25.53-27.19,42.88-33.62,4.07-1.51,7.59-2.81,10.32-4,11.46-5.14,21.21-13.08,14.88-52.86m-1-1.55c6.74,40.49-2.7,48.58-14.17,53.73-14.7,6.59-54.52,16.27-53.65,38.37,1.52,38.63,36.64,41.89,41.32,42.15-3.14-.44-.73-8.1-1.72-22.84-1-15.18,14.38-27.74,14.38-27.74s43.86-9.45,46.56-35.76-32.72-47.91-32.72-47.91ZM448.14,509.5l.3,0h.19l-.49,0Zm.49,0h0Z" transform="translate(-90.4 -93.89)"/><path class="cls-2" d="M446.91,619.68c-7.52-.71-38.31-5.84-39.72-41.69-.7-17.75,25.68-27.52,43.13-34,4.07-1.51,7.58-2.81,10.3-4,11.4-5.11,21.08-13.05,14.52-53.3,5,3.23,34.28,23.38,31.85,47.1-2.64,25.74-45.83,35.34-46.26,35.43a.31.31,0,0,0-.17.09c-.14.12-13.68,12.21-12.67,27.4a79.84,79.84,0,0,1-.81,16.87C446.68,616.55,446.4,618.61,446.91,619.68Z" transform="translate(-90.4 -93.89)"/><path class="cls-5" d="M475.65,487.46c6.5,4.34,33.28,23.71,31,46.27-2.61,25.47-45.53,35-46,35.11a.65.65,0,0,0-.34.17c-.57.49-13.82,12.33-12.8,27.71a79.27,79.27,0,0,1-.8,16.79,20.05,20.05,0,0,0-.33,5.74,50.56,50.56,0,0,1-19.65-6.4C414.64,605.7,408.2,594,407.57,578c-.69-17.47,25.53-27.19,42.88-33.62,4.07-1.51,7.59-2.81,10.32-4,11.46-5.14,21.21-13.08,14.88-52.85m-1-1.55c6.74,40.48-2.7,48.57-14.17,53.72-14.7,6.59-54.52,16.28-53.65,38.37,1.52,38.71,36.77,41.9,41.34,42.15-3.07-.44,1.09-8.72.1-23.48-1-15.18,12.54-27.1,12.54-27.1s43.86-9.45,46.56-35.76-32.72-47.9-32.72-47.9ZM448.16,620.15a1.27,1.27,0,0,0,.28,0h.19l-.47,0Zm.47,0h0Z" transform="translate(-90.4 -93.89)"/><path class="cls-2" d="M435.67,686.3c-9.89,0-16.89-1.84-18.1-2.63,41.64-25.51,57.44-40.24,56.78-92.3,4.32,4.21,28.7,29.28,21.63,52C484.33,680.72,453.19,686.3,435.67,686.3Z" transform="translate(-90.4 -93.89)"/><path class="cls-5" d="M474.73,592.28c5.63,5.64,27.6,29.41,20.89,51-4.93,15.82-13.94,27.48-26.8,34.66-11.89,6.64-24.59,8-33.15,8-8.95,0-15.26-1.48-17.31-2.29,41.08-25.22,56.84-40.08,56.37-91.35m-.77-1.8c.84,52-14,66.8-56.79,93-1.13.69,6.95,3.19,18.5,3.19,19.7,0,49.47-7.27,60.67-43.22,7.87-25.25-22.38-53-22.38-53Z" transform="translate(-90.4 -93.89)"/><path class="cls-3" d="M473.8,686.67H447.61V323.6l-9.79-32.29a6.25,6.25,0,0,0-6-4.44h-.57a6.26,6.26,0,0,1-6.26-6.26v-2.67a6.25,6.25,0,0,1,6.26-6.25h59.35a6.25,6.25,0,0,1,6.25,6.25v2.82a6.25,6.25,0,0,1-6.44,6.25h0a6.24,6.24,0,0,0-6.14,4.32L473.8,323.6Z" transform="translate(-90.4 -93.89)"/><path class="cls-6" d="M355.51,263.59c22.6,5.06,61.73-3.37,74.55-28,10.06-19.33-43-18.09-66.36-16.66a48.77,48.77,0,0,0-29.44,11.73c-9.11,8.05-17.55,21.29-14.85,42,5.4,41.49,41.83,65.78,89.4,75.9s62.53,24,65.78,40.32c2.2,11,1,22.67,1.33,31.34l-.09,5.48S507.42,404,505,372.89c-2.7-34.07-83.37-53.88-100.87-58.7-15.61-4.29-44.65-19.82-47.57-40.14C355.33,265.78,355.51,263.59,355.51,263.59Z" transform="translate(-90.4 -93.89)"/><path class="cls-7" d="M355.51,263.59c22.6,5.06,61.73-3.37,74.55-28,10.06-19.33-43-18.09-66.36-16.66a48.77,48.77,0,0,0-29.44,11.73c-9.11,8.05-17.55,21.29-14.85,42,5.4,41.49,41.83,65.78,89.4,75.9s62.53,24,65.78,40.32c2.2,11,1,22.67,1.33,31.34l-.09,5.48S507.42,404,505,372.89c-2.7-34.07-83.37-53.88-100.87-58.7-15.61-4.29-44.65-19.82-47.57-40.14C355.33,265.78,355.51,263.59,355.51,263.59Z" transform="translate(-90.4 -93.89)"/><path class="cls-6" d="M445.65,376.53s-33.47,20.31-30.77,46.63c2,19.77,27.29,30,39.73,33.89,7.88,2.45,14.78,7.66,18.52,15a23.19,23.19,0,0,1,2.66,12.16c-1,15.18,1.6,25.3-2,25.3s32,.59,33.71-42.51c.87-22.09-31-31.44-45.74-38C450.3,423.83,443.9,415.4,445.65,376.53Z" transform="translate(-90.4 -93.89)"/><path class="cls-7" d="M445.65,376.53s-33.47,20.31-30.77,46.63c2,19.77,27.29,30,39.73,33.89,7.88,2.45,14.78,7.66,18.52,15a23.19,23.19,0,0,1,2.66,12.16c-1,15.18,1.6,25.3-2,25.3s32,.59,33.71-42.51c.87-22.09-31-31.44-45.74-38C450.3,423.83,443.9,415.4,445.65,376.53Z" transform="translate(-90.4 -93.89)"/><path class="cls-6" d="M446.42,486.66s-34.24,20.84-31.54,47.15c2,19.73,27.2,30,39.66,33.87a31,31,0,0,1,17.57,13.43,24.39,24.39,0,0,1,3.68,14.1c-1,15.18-2,21.37-2,25,0,.62,32,.93,33.71-42.17.87-22.09-31-31.78-45.74-38.37C450.3,534.48,439.68,527.15,446.42,486.66Z" transform="translate(-90.4 -93.89)"/><path class="cls-7" d="M446.42,486.66s-34.24,20.84-31.54,47.15c2,19.73,27.2,30,39.66,33.87a31,31,0,0,1,17.57,13.43,24.39,24.39,0,0,1,3.68,14.1c-1,15.18-2,21.37-2,25,0,.62,32,.93,33.71-42.17.87-22.09-31-31.78-45.74-38.37C450.3,534.48,439.68,527.15,446.42,486.66Z" transform="translate(-90.4 -93.89)"/><path class="cls-6" d="M448.28,590.48s-30.25,27.72-22.38,53c17.77,57,82.24,41.91,79.17,40C462.28,657.28,447.44,642.44,448.28,590.48Z" transform="translate(-90.4 -93.89)"/><path class="cls-7" d="M448.28,590.48s-30.25,27.72-22.38,53c17.77,57,82.24,41.91,79.17,40C462.28,657.28,447.44,642.44,448.28,590.48Z" transform="translate(-90.4 -93.89)"/><circle class="cls-5" cx="285.22" cy="129.27" r="18.89"/><circle class="cls-5" cx="445.55" cy="129.27" r="18.89"/><path class="cls-2" d="M189.79,677.39q-.84-.9-3.32-3.81-1.89-2.24-3.07-3.48l-7.6-7.65c-.63-.67-.71-1.22-.25-1.65s.93-.31,1.56.22a7.61,7.61,0,0,0,3.29,2c.79.11,2-.34,3.53-1.34a89.58,89.58,0,0,0,9.36-8.13q8.09-7.6,12.24-12c2.77-2.94,4.26-5,4.46-6.16a4.17,4.17,0,0,0-1.41-3.57c-.79-.84-1-1.47-.52-1.88.6-.56,1.32-.4,2.17.51.25.26.59.64,1,1.15q4.18,5.11,5.86,6.88a68.78,68.78,0,0,0,5.6,5.48c.68.58,1.14,1,1.4,1.28q.9.94.15,1.65-.59.55-1.44-.15-2.33-1.9-4-1.78c-1.09.09-2.87,1.19-5.34,3.32s-6.19,5.55-11.18,10.26q-7.89,7.44-10.3,10.24c-1.6,1.86-2.41,3.2-2.4,4a5.81,5.81,0,0,0,1.57,3.21c.57.7.6,1.27.13,1.72S190.39,678,189.79,677.39Z" transform="translate(-90.4 -93.89)"/><path class="cls-2" d="M146.75,625.06q7.44-24.36,11.36-40l-2.64,1.59-11.83,7.27A30.81,30.81,0,0,0,138,598.1a5.67,5.67,0,0,0-1.6,3.79,8.78,8.78,0,0,0,1,4.37c.38.79.29,1.35-.24,1.68s-1.08.2-1.5-.48a17.1,17.1,0,0,1-.79-1.53,55.67,55.67,0,0,0-2.89-5.11c-1.7-2.75-3.07-4.79-4.09-6.14-.43-.56-.77-1-1-1.47-.47-.76-.41-1.31.16-1.67s1.2,0,1.93.91a7.31,7.31,0,0,0,3.76,2.54c1.6.5,3.78-.09,6.52-1.79L156,582.61,168.84,575c1.1-.68,1.86-.68,2.27,0a1.48,1.48,0,0,1,.21.74,61.44,61.44,0,0,1-1.6,6.66q-1.64,6.2-5.4,18.74c-2.49,8.35-4.34,14.27-5.51,17.75q.84-.43,15.06-9.22a58.78,58.78,0,0,0,6.65-4.63,5.52,5.52,0,0,0,2.18-4.57,8.5,8.5,0,0,0-1.07-4.23c-.41-.68-.37-1.18.15-1.5s1.12-.19,1.57.53a19.87,19.87,0,0,1,1,1.8,39.71,39.71,0,0,0,2.58,4.72,63.13,63.13,0,0,0,4.26,6.29c.61.78,1,1.34,1.25,1.7.48.78.39,1.37-.27,1.78-.47.29-1.15-.16-2-1.35q-2.34-3.21-4.94-2.79A17.68,17.68,0,0,0,179,610q-15.4,9.53-18.75,11.81a13.41,13.41,0,0,0-4.88,6,8.92,8.92,0,0,0-.36,6.84c.34.87.28,1.45-.2,1.74-.66.4-1.24.2-1.75-.62q-.18-.3-.48-.9c-.24-.49-.73-1.32-1.46-2.52C149.52,629.76,148.07,627.34,146.75,625.06Z" transform="translate(-90.4 -93.89)"/><path class="cls-2" d="M111.67,560q-4.87-17.58-7.45-25.94-1.95-6.36-4.66-13.87c-.64-1.78-1.15-3.26-1.51-4.43-.14-.44-.35-1.2-.65-2.26.86-.43,2.7-1.22,5.48-2.34L108,509q1.31-.4,1.65.69c.17.56-.2,1.26-1.12,2.1a16.56,16.56,0,0,0-3.66,4.72,10.31,10.31,0,0,0-1.16,5.42,43.6,43.6,0,0,0,2,8.92q5.3-1.05,13-3.41,7.89-2.43,15.13-5a60.36,60.36,0,0,0,8.62-3.46,4,4,0,0,0,1.76-2.16c.26-.83.09-2.57-.53-5.19-.2-.9,0-1.43.54-1.61s1.06.1,1.29.86l.25.95,2,7q2.49,8.13,3.1,9.87l1.47,4.18q.15.49.57,2.1a.87.87,0,0,1-.6,1c-.65.2-1.11-.12-1.37-1a7.27,7.27,0,0,0-2.62-4.12,6.1,6.1,0,0,0-4.52-.65q-2.81.48-11.84,3.25-14.27,4.38-23,8a50.86,50.86,0,0,0,2.91,7.87,10.26,10.26,0,0,0,4,4,15.77,15.77,0,0,0,6.39,2.11c1,.12,1.53.43,1.68.92.23.76,0,1.24-.66,1.45-.2.06-1.71.37-4.54.94S113.59,559.8,111.67,560Z" transform="translate(-90.4 -93.89)"/><path class="cls-2" d="M90.4,440l10.83-2.75a.9.9,0,0,1,1.07,1c0,.37-.29.81-.91,1.31q-5.07,3.87-6.6,7c-1,2.05-1.44,5-1.24,8.73a34.13,34.13,0,0,0,.82,6.08,134.93,134.93,0,0,0,13.62,0c.83,0,2.25-.13,4.23-.28l-.1-2.67a12.21,12.21,0,0,0-.89-4.26,6.19,6.19,0,0,0-3.07-2.93,18.34,18.34,0,0,0-2.93-1.29c-.76-.18-1.15-.52-1.17-1,0-.66.23-1,.79-1a3,3,0,0,1,.57,0q2.19.33,13-.22a12.24,12.24,0,0,0,2.72-.41,3.28,3.28,0,0,1,.59-.11c.66,0,1,.33,1,1.08,0,.51-.57.94-1.8,1.28a7.77,7.77,0,0,0-4.81,3.45q-1.57,2.58-1.38,8c3.94-.08,6.52-.14,7.76-.21q8-.39,9.5-.71a3.5,3.5,0,0,0,2.35-1.91,10.89,10.89,0,0,0,.67-5.28q-.66-13.37-9.36-17.16c-.81-.36-1.24-.77-1.26-1.23,0-.68.23-1,.79-1.05a5.88,5.88,0,0,1,1.45.14l10.18,1.78.59,12.69c.16,3.58.24,6.92.26,10s.06,5.53.14,7.29c.11,2,.37,4.91.8,8.85.07.49.11.85.12,1.09,0,1.1-.28,1.67-1,1.7s-1-.39-1-1.29c-.12-2.26-.81-3.76-2.07-4.48s-3.79-1-7.57-.8l-18.07.68q-9.26.46-11.36.79a4.07,4.07,0,0,0-2.81,1.36,8.32,8.32,0,0,0-1,3.74c-.06.75-.37,1.14-.94,1.17s-1.07-.38-1.11-1.25l-.16-8.47Z" transform="translate(-90.4 -93.89)"/><path class="cls-2" d="M105.06,353.9,115.24,355a11.17,11.17,0,0,1,1.11.17c.71.14,1,.53.87,1.14s-.62,1-1.5,1.19a25.89,25.89,0,0,0-10.48,5.19A16.09,16.09,0,0,0,99.66,372a13.41,13.41,0,0,0,3.76,12.79A25.92,25.92,0,0,0,117.1,392q9.34,2,16.27-1.39c4.62-2.23,7.35-5.43,8.22-9.57a13.3,13.3,0,0,0-.1-5.64,7.41,7.41,0,0,0-1.88-4.05,8.67,8.67,0,0,0-3.85-1.6c-3.85-.81-6.28-1.15-7.29-1a3.31,3.31,0,0,0-2.3,1.12,15.26,15.26,0,0,0-1.84,4.16c-.26.84-.69,1.2-1.26,1.07s-.91-.61-.75-1.41l1.09-5.2,3-15.94c.15-.71.52-1,1.12-.89a.71.71,0,0,1,.61.57,22.16,22.16,0,0,1,.11,3,3.67,3.67,0,0,0,.74,2.63q.7.69,10.19,3c1.41.34,2.19.55,2.36.63A23.86,23.86,0,0,1,143,366a37.23,37.23,0,0,1,.63,17.55,28.61,28.61,0,0,1-5.42,12.07,23.54,23.54,0,0,1-9.73,7.34,21.69,21.69,0,0,1-12.79.89A24.54,24.54,0,0,1,100,393.44q-5.77-8.32-3.31-20.19a27.2,27.2,0,0,1,2.6-7.37,69.45,69.45,0,0,1,4.5-7.08,3.88,3.88,0,0,0,.69-1.39c.1-.46-.17-.89-.78-1.28-.8-.51-1.15-1-1-1.55S103.58,353.74,105.06,353.9Z" transform="translate(-90.4 -93.89)"/><path class="cls-2" d="M147,300.84a17.37,17.37,0,0,1,6.06-5.68q3.34-1.76,9.89-.2c4.1,1,7,1.23,8.64.84a6.27,6.27,0,0,0,4-3.2c.56-1,1.12-1.28,1.69-1s.51,1.25-.29,2.84l-6.37,11.94q-2.84.93-8-.81a53.31,53.31,0,0,0-9.65-2.56,7.59,7.59,0,0,0-5.07,1,9.53,9.53,0,0,0-3.29,3.82c-.24.47-.54,1.15-.89,2q11,5.53,13.64,6.74a6.63,6.63,0,0,0,4.19.82c1.06-.26,2.07-1.24,3-3,.53-.9,1.08-1.22,1.64-.94s.65.83.24,1.65l-5.08,9.52q-1,1.94-2.35,5.07c-.83,1.91-1.37,3.12-1.62,3.62-.43.86-1,1.14-1.56.83s-.69-.81-.31-1.57a7,7,0,0,0,.75-3.69c-.08-1.28-2.32-3-6.69-5.22l-5.86-2.89-11.25-5.68q-8.73-4.38-11-4.58c-1.55-.13-2.9.91-4.07,3.13-.46.87-1,1.16-1.57.86s-.62-1,0-2.21q4.44-8.85,7.15-15.19,1.17-2.84,2.28-5,3.57-7.12,8.44-9.75a9.92,9.92,0,0,1,14,4.36,13,13,0,0,1,1.24,6.61A24.52,24.52,0,0,1,147,300.84Zm-5.59,7.87c.29-.53.5-.93.64-1.2a17.9,17.9,0,0,0,1.74-6,7.64,7.64,0,0,0-1.29-5.57,11.68,11.68,0,0,0-4.22-3.54,9,9,0,0,0-7.28-.75,9.38,9.38,0,0,0-5.21,4.9,14.08,14.08,0,0,0-1.18,3.77Z" transform="translate(-90.4 -93.89)"/><path class="cls-2" d="M167.41,226.53,169,224.7q10.67,2.91,32.62,10.31,10.08,3.39,12.64,3.61a6.47,6.47,0,0,0,5-1.92c.53-.48,1-.55,1.38-.22.55.46.54,1.05-.05,1.75-.32.37-1.2,1.3-2.65,2.77q-2.6,2.59-4.19,4.5c-1,1.24-2.33,2.91-3.86,5-1.14,1.57-1.91,2.59-2.3,3.06-.69.82-1.3,1-1.82.58s-.37-.8.05-1.42c1.66-2.38,1.72-4.2.18-5.49a19.8,19.8,0,0,0-4.77-2.37,65.77,65.77,0,0,0-7-2.34l-2.31,2.7q-4.56,5.42-7.07,8.46,4.41,7.65,6.46,9.38a3.45,3.45,0,0,0,3.26.77,6.73,6.73,0,0,0,3.05-1.71c.64-.62,1.21-.72,1.7-.32s.41,1-.21,1.71c-.24.29-.92,1-2,2.15q-2.18,2.22-3.08,3.28a38.42,38.42,0,0,0-3.12,4.26,5.53,5.53,0,0,1-.6.88c-.55.66-1.1.77-1.64.32a1,1,0,0,1-.24-1.31,10.26,10.26,0,0,0,1-3.47,10.65,10.65,0,0,0-.92-4.13,54.61,54.61,0,0,0-4-7.67Q177.88,246.6,167.41,226.53Zm7.78,9.78,8.1,14.77,7.85-9.61c-1.82-.69-4.4-1.54-7.72-2.56C179.81,237.81,177.08,237,175.19,236.31Z" transform="translate(-90.4 -93.89)"/><path class="cls-2" d="M238.24,166.56c0-.78,0-1.64,0-2.56-.06-1.11.07-1.79.41-2.05a1,1,0,0,1,.93-.29,7.09,7.09,0,0,1,1.62,1.5l7.28,8.22.92,1.06c.58.74.57,1.34,0,1.8-.39.3-.94.25-1.66-.18a31.55,31.55,0,0,0-9.16-3.34,11.74,11.74,0,0,0-10.25,2.22,10.53,10.53,0,0,0-4.09,6.28,16,16,0,0,0,.59,8,29,29,0,0,0,5,9q6.22,8,13.43,10t12.44-2.11q5.68-4.42,5.07-15c0-.86.11-1.42.45-1.69a1,1,0,0,1,1.57.2c1,1.22,1,4.29.18,9.21a19.77,19.77,0,0,1-7.83,12.51q-8.7,6.78-17.92,5.33a23.56,23.56,0,0,1-15.34-9.29,25.06,25.06,0,0,1-5.47-17.52,20.84,20.84,0,0,1,8.37-15.77A29.33,29.33,0,0,1,238.24,166.56Z" transform="translate(-90.4 -93.89)"/><path class="cls-2" d="M270.31,142.67c.72-.37,2.25-1.09,4.57-2.17q2.65-1.2,4.18-2l9.42-5.24c.81-.43,1.36-.36,1.66.2s.05,1-.64,1.44a7.49,7.49,0,0,0-2.8,2.64c-.32.73-.2,2,.34,3.76a90.94,90.94,0,0,0,5.29,11.21q5.15,9.83,8.26,15t4.73,6a4.17,4.17,0,0,0,3.81-.4c1-.53,1.67-.53,1.95,0,.38.72,0,1.38-1.08,1.95-.31.16-.77.39-1.39.68-4,1.77-6.77,3-8.2,3.78a69.84,69.84,0,0,0-6.79,3.91c-.75.5-1.29.83-1.62,1q-1.15.6-1.62-.3c-.25-.48-.08-.93.52-1.35q2.48-1.72,2.79-3.34c.22-1.08-.37-3.09-1.75-6s-3.67-7.46-6.85-13.54q-5-9.62-7.07-12.69c-1.36-2-2.44-3.18-3.23-3.4a5.84,5.84,0,0,0-3.52.66c-.83.35-1.39.23-1.69-.35S269.54,143.08,270.31,142.67Z" transform="translate(-90.4 -93.89)"/><path class="cls-2" d="M344.47,110.79a26,26,0,0,1,12.7-.9,21.73,21.73,0,0,1,10.56,5.4,22.51,22.51,0,0,1,6.5,10.3,25.61,25.61,0,0,1-35.11,30.29q-8.52-4-11.64-14.22A23.62,23.62,0,0,1,329.36,123,24.49,24.49,0,0,1,344.47,110.79Zm18.68,19.27Q360,119.89,355,115.8t-10.33-2.47q-5.28,1.61-7.16,7.81t1.2,16.36q3,9.75,7.91,14.11c3.29,2.92,6.8,3.8,10.52,2.67q4.93-1.5,7.11-7.47T363.15,130.06Z" transform="translate(-90.4 -93.89)"/><path class="cls-2" d="M414.71,96.91q18.19,17.84,30.26,28.51c-.09-1.58-.15-2.61-.19-3.08l-1-13.85a31.69,31.69,0,0,0-1.08-7,5.64,5.64,0,0,0-2.64-3.16,8.78,8.78,0,0,0-4.34-1.12c-.87,0-1.33-.36-1.38-1s.32-1.05,1.11-1.11a13.81,13.81,0,0,1,1.73,0,52,52,0,0,0,5.87-.21c3.21-.24,5.66-.51,7.33-.8a17.09,17.09,0,0,1,1.78-.23c.89-.07,1.36.24,1.41.91s-.52,1.09-1.71,1.29a7.29,7.29,0,0,0-4,2.17c-1.19,1.18-1.66,3.39-1.42,6.61l1.65,19.8L449,139.6c.09,1.28-.26,2-1.05,2a1.78,1.78,0,0,1-.75-.16A64.18,64.18,0,0,1,442,137q-4.74-4.32-14.14-13.42t-13.22-13.08q0,1,1.25,17.62a57.75,57.75,0,0,0,1,8,5.53,5.53,0,0,0,3,4,8.6,8.6,0,0,0,4.25,1c.8-.06,1.21.22,1.26.82s-.34,1.08-1.18,1.14a18.88,18.88,0,0,1-2,0,39.3,39.3,0,0,0-5.38.12,63.23,63.23,0,0,0-7.54.88,20.24,20.24,0,0,1-2.09.33c-.91.07-1.39-.28-1.45-1-.05-.56.66-1,2.12-1.18q3.94-.62,4.75-3.11a17.53,17.53,0,0,0,.51-6.66q-1.35-18.06-1.85-22.08a13.35,13.35,0,0,0-3.06-7.09,9,9,0,0,0-5.91-3.47c-.93-.09-1.41-.42-1.45-1q-.09-1.15,1.35-1.26c.23,0,.57,0,1,0s1.51,0,2.91-.15C409.26,97.21,412.09,97,414.71,96.91Z" transform="translate(-90.4 -93.89)"/><path class="cls-2" d="M548.07,105.6q.28,2.36,1.35,7.57t2.06,10.55q1,5.34,2.41,11.34c.78,3.16,1.2,5,1.27,5.55q13.88-16.53,21.51-26.85,8.12,2.33,15.09,3.87l1,.24q1.38.39,1.08,1.47c-.18.64-.64.85-1.35.64q-3.86-1.1-5.8,1.18t-4.84,12.4l-4.75,16.54q-1.44,5.07-.69,7.47a5.2,5.2,0,0,0,3.73,3.37c1,.3,1.35.76,1.17,1.39a1,1,0,0,1-.84.68L571,160.23q-4.35-1.24-12-3a1.29,1.29,0,0,1-.37-1.13c.15-.52.83-.71,2-.55a6.58,6.58,0,0,0,2.83-.15,3.81,3.81,0,0,0,1.79-1.79,19.71,19.71,0,0,0,1.71-4.45L571.41,134q3.3-11.58,3.84-13.34-15.27,18.74-19.14,24l-6,8.18c-.66.86-1.18,1.23-1.56,1.12s-.72-.84-.95-2.2q-1-5.91-7.81-39.37-2.57,8.34-6.62,22.57-2.14,7.5-1.86,9.72t4.07,3.66c.83.34,1.16.77,1,1.31s-.6.78-1.3.59c-.24-.07-.51-.17-.8-.27q-4-1.47-5.72-2a58.32,58.32,0,0,0-7.36-1.74,5.4,5.4,0,0,1-.72-.13c-.8-.23-1.1-.67-.91-1.32a.75.75,0,0,1,.48-.57,6.1,6.1,0,0,1,1.66,0c2.28.21,3.91-.17,4.91-1.13s1.86-2.74,2.6-5.35l5.68-19.25a73.87,73.87,0,0,0,2.15-8.82,5.49,5.49,0,0,0-.72-3.75,9.64,9.64,0,0,0-3.8-3c-.7-.37-1-.85-.79-1.43s.67-.83,1.48-.6a7.14,7.14,0,0,1,.73.25Q537.3,102.53,548.07,105.6Z" transform="translate(-90.4 -93.89)"/><path class="cls-2" d="M658.17,151.75q-1.7,5.33-3.43,10.64a.89.89,0,0,1-1.38.4c-.33-.19-.54-.67-.62-1.47-.4-4.23-1.19-7.32-2.39-9.28s-3.45-3.86-6.73-5.71a35.18,35.18,0,0,0-5.6-2.52,131.93,131.93,0,0,0-7.19,11.55c-.42.74-1.09,2-2,3.73l2.31,1.34a12.21,12.21,0,0,0,4.09,1.5,6.16,6.16,0,0,0,4.1-1,19.12,19.12,0,0,0,2.66-1.8c.55-.55,1-.7,1.5-.44s.72.72.45,1.21a3.13,3.13,0,0,1-.34.45c-1,1.13-3.2,4.86-6.74,11.16a12.86,12.86,0,0,0-1.1,2.53,3.11,3.11,0,0,1-.22.56c-.33.57-.81.67-1.46.31-.46-.25-.5-1-.14-2.21a7.72,7.72,0,0,0-.36-5.9q-1.35-2.72-6-5.41c-2,3.38-3.34,5.6-3.95,6.68q-3.92,7-4.44,8.42a3.45,3.45,0,0,0,.37,3q.9,1.58,4.12,3.37,11.67,6.54,19.5,1.2c.74-.51,1.31-.64,1.71-.41.6.32.75.74.48,1.23a6.54,6.54,0,0,1-.89,1.15l-6.92,7.68-11.07-6.25q-4.66-2.66-8.63-5.12c-2.64-1.63-4.72-2.89-6.25-3.74-1.72-1-4.36-2.31-7.93-4-.44-.2-.77-.36-1-.48-1-.53-1.26-1.12-.91-1.75s.87-.64,1.65-.21c2,1.11,3.62,1.33,4.9.64s2.85-2.69,4.7-6l9-15.66q4.53-8.09,5.36-10a4,4,0,0,0,.35-3.11,8.32,8.32,0,0,0-2.65-2.79c-.61-.46-.78-.92-.5-1.41s.89-.71,1.64-.29l7.26,4.37Z" transform="translate(-90.4 -93.89)"/><path class="cls-2" d="M677.91,225.32q-1.14-1-9.27-8.66l-5.75-5.15-3.31-3.09a6.14,6.14,0,0,1-1.37-1.5.86.86,0,0,1,.28-.91c.45-.51,1-.42,1.8.25a7.13,7.13,0,0,0,3.78,2.1,5.14,5.14,0,0,0,3.68-1.55q2-1.73,7.53-7.37t9.93-10.54c4.17-4.61,6.5-7.63,7-9.09s-.08-3-1.76-4.69c-.57-.61-.65-1.15-.23-1.62s.92-.46,1.47.05c.33.3,1.37,1.4,3.1,3.32q2.93,3.15,4.17,4.29L709,189.87a33.39,33.39,0,0,1,7.82,10.51,20.58,20.58,0,0,1,1.7,12.77,25.26,25.26,0,0,1-14.43,18.21,20.85,20.85,0,0,1-9.86,1.73,21.66,21.66,0,0,1-8.76-2.26A38.2,38.2,0,0,1,677.91,225.32Zm0-3.51a14.36,14.36,0,0,0,12.11,4q6.64-1,13.08-8.08t7.33-15q.79-7.77-5.5-13.47a9.83,9.83,0,0,0-2.82-2.09,1.54,1.54,0,0,0-1,0q-.35.17-5.59,5.56l-8.31,8.56q-3,3.19-7.38,8a35.67,35.67,0,0,0-4.2,5.28,4.56,4.56,0,0,0-.52,3.36A8.29,8.29,0,0,0,677.86,221.81Z" transform="translate(-90.4 -93.89)"/><path class="cls-2" d="M752.16,235.71c.48.65,1.43,2,2.83,4.18q1.6,2.45,2.62,3.84l6.61,8.52c.53.73.55,1.29,0,1.67s-1,.19-1.52-.41a7.62,7.62,0,0,0-3-2.38c-.78-.2-2,.1-3.67.91s-5.1,3.11-10.29,6.92q-8.94,6.56-13.61,10.43C729,272,727.31,273.82,727,275a4.16,4.16,0,0,0,1,3.7c.68.93.77,1.58.29,1.93-.67.49-1.36.23-2.1-.77-.21-.28-.5-.7-.88-1.26q-3.54-5.6-5-7.55a70,70,0,0,0-4.88-6.12c-.61-.67-1-1.15-1.24-1.45-.51-.7-.49-1.25.05-1.65s.91-.21,1.41.32c1.39,1.45,2.62,2.2,3.72,2.25s3-.83,5.71-2.64,6.83-4.75,12.36-8.81q8.75-6.42,11.47-8.9t2.88-3.71a5.85,5.85,0,0,0-1.17-3.38c-.48-.76-.45-1.34.08-1.72S751.64,235,752.16,235.71Z" transform="translate(-90.4 -93.89)"/><path class="cls-2" d="M795.93,317.08c.76.19,1.6.37,2.5.55,1.1.18,1.73.46,1.91.85s.23.74.07,1a7,7,0,0,1-1.82,1.24L789,326l-1.25.65c-.85.4-1.43.25-1.75-.42-.2-.45,0-1,.55-1.58a31.42,31.42,0,0,0,5.3-8.19,11.72,11.72,0,0,0,.12-10.48,10.5,10.5,0,0,0-5.2-5.39,16,16,0,0,0-8-1.22,29.27,29.27,0,0,0-9.9,2.86q-9.2,4.29-12.73,10.87t-.73,12.6q3,6.52,13.48,8.28c.84.15,1.36.42,1.55.82a1,1,0,0,1-.55,1.49q-2.1,1-9-1.89A19.79,19.79,0,0,1,750.42,324q-4.65-10-1.19-18.67a23.56,23.56,0,0,1,12.48-12.87A25.1,25.1,0,0,1,780,291a20.85,20.85,0,0,1,13.5,11.68A29.32,29.32,0,0,1,795.93,317.08Z" transform="translate(-90.4 -93.89)"/><path class="cls-2" d="M817.69,374.82l.47,2.35q-9,6.49-28.48,19-9,5.73-10.75,7.59a6.52,6.52,0,0,0-1.61,5.07c0,.71-.19,1.11-.69,1.22-.71.14-1.16-.24-1.34-1.14-.09-.48-.26-1.75-.49-3.8-.26-2.43-.56-4.46-.88-6.09s-.81-3.63-1.5-6.15c-.51-1.88-.83-3.12-.94-3.72-.21-1.05,0-1.64.68-1.78.5-.09.87.21,1.08.93q1.21,4.17,4.17,3.59a20.09,20.09,0,0,0,4.83-2.24,64.78,64.78,0,0,0,6.2-4c-.28-1.5-.5-2.67-.66-3.5q-1.37-6.94-2.16-10.8-8.73-1.36-11.36-.85a3.46,3.46,0,0,0-2.64,2.06A6.68,6.68,0,0,0,771,376c.08.9-.2,1.4-.81,1.52s-1-.28-1.21-1.22c-.08-.37-.21-1.35-.4-2.93-.24-2.05-.45-3.54-.63-4.46a38.26,38.26,0,0,0-1.36-5.1,6.18,6.18,0,0,1-.31-1q-.26-1.27.78-1.47a1,1,0,0,1,1.16.63,10.18,10.18,0,0,0,2.09,2.95,10.4,10.4,0,0,0,3.78,1.88,56.66,56.66,0,0,0,8.46,1.73Q795.49,370.41,817.69,374.82Zm-12.5-.07-16.58-2.94L791.18,384c1.68-1,4-2.48,6.83-4.42C801.12,377.42,803.52,375.83,805.19,374.75Z" transform="translate(-90.4 -93.89)"/><path class="cls-2" d="M781,444.06a4.92,4.92,0,0,1-5-4.84,4.93,4.93,0,0,1,4.83-5,4.73,4.73,0,0,1,3.47,1.38,4.67,4.67,0,0,1,1.5,3.42,4.92,4.92,0,0,1-4.79,5Z" transform="translate(-90.4 -93.89)"/><path class="cls-2" d="M798,558.73c.42.66.9,1.36,1.44,2.11s.93,1.53.8,1.94-.36.69-.63.75a7.12,7.12,0,0,1-2.18-.36l-10.61-2.81-1.35-.38c-.89-.29-1.22-.8-1-1.51.16-.46.65-.72,1.48-.76a31.48,31.48,0,0,0,9.49-2.3,11.72,11.72,0,0,0,7.31-7.51,10.54,10.54,0,0,0-.07-7.49,16,16,0,0,0-4.93-6.36,28.87,28.87,0,0,0-9.15-4.75q-9.62-3.22-16.71-.89t-9.2,8.63q-2.29,6.84,4.06,15.3c.51.69.7,1.24.56,1.66a1,1,0,0,1-1.43.7q-2.19-.74-5.23-7.59a19.73,19.73,0,0,1-.4-14.74q3.49-10.46,12-14.36a23.56,23.56,0,0,1,17.91-.75,25.16,25.16,0,0,1,14.26,11.58,20.83,20.83,0,0,1,1.74,17.76A29.44,29.44,0,0,1,798,558.73Z" transform="translate(-90.4 -93.89)"/><path class="cls-2" d="M742.39,584a4.71,4.71,0,0,1-2.35-2.94,4.88,4.88,0,0,1,3.35-6.06,4.73,4.73,0,0,1,3.73.43,4.91,4.91,0,0,1,1.92,6.63,4.77,4.77,0,0,1-2.94,2.35A4.7,4.7,0,0,1,742.39,584Z" transform="translate(-90.4 -93.89)"/><path class="cls-2" d="M749,650.83l-1.52,1.85q-10.71-2.77-32.75-9.89-10.12-3.25-12.69-3.45a6.5,6.5,0,0,0-4.94,2c-.52.49-1,.56-1.37.24-.57-.46-.56-1,0-1.75.32-.38,1.19-1.32,2.62-2.81,1.71-1.75,3.09-3.26,4.14-4.55s2.29-2.94,3.79-5.07c1.12-1.59,1.87-2.63,2.26-3.1.68-.83,1.29-1,1.81-.6s.39.8,0,1.42c-1.62,2.4-1.66,4.22-.11,5.49a19.58,19.58,0,0,0,4.8,2.31,66.08,66.08,0,0,0,7,2.25c1-1.16,1.75-2.08,2.28-2.73q4.47-5.48,7-8.55-4.5-7.59-6.58-9.3a3.43,3.43,0,0,0-3.26-.72,6.75,6.75,0,0,0-3,1.74c-.64.63-1.2.74-1.69.34s-.43-1,.18-1.71c.24-.29.91-1,2-2.17,1.43-1.49,2.45-2.6,3-3.32a39.45,39.45,0,0,0,3.07-4.3,6.57,6.57,0,0,1,.58-.89c.55-.67,1.1-.78,1.64-.33a1,1,0,0,1,.26,1.3,10.08,10.08,0,0,0-1,3.48,10.74,10.74,0,0,0,1,4.12,55.39,55.39,0,0,0,4.06,7.61Q738.23,630.91,749,650.83Zm-7.91-9.68-8.29-14.66L725,636.2q2.76,1,7.76,2.46C736.4,639.71,739.16,640.54,741.05,641.15Z" transform="translate(-90.4 -93.89)"/></g></svg>